<svg xmlns="http://www.w3.org/2000/svg" width="54.01" height="54.01" viewBox="0 0 54.01 54.01">
  <g id="Group_1" data-name="Group 1" transform="translate(-55.995 -1787.995)">
    <path id="Shape_8_copy_4" data-name="Shape 8 copy 4" d="M154.217,1829.185l-12.226.082,4.989-5.217,12.227-.083.464,12.219-4.99,5.217Zm21.015,6.654-.083-12.227,12.219-.464,5.217,4.99-12.219.464.083,12.227Zm-13.443-14.572-12.227.082,4.989-5.217,12.227-.082.464,12.219-4.99,5.216Zm5.525,7-.083-12.227,12.22-.464,5.216,4.99-12.218.464.082,12.227Zm-17.981-17.2,12.218-.464-.082-12.227,5.217,4.989.082,12.228-12.219.464Zm17.425-7.7,4.99-5.217.464,12.218,12.227-.082-4.989,5.217-12.228.082Zm-25.343.132,12.218-.464-.082-12.227,5.217,4.989.082,12.228-12.218.464Zm32.915-8.051,4.99-5.217.464,12.218,12.227-.081-4.989,5.216-12.228.083Z" transform="translate(-84 -1)" fill="#f5c506" opacity="0.502"/>
    <path id="Shape_8_copy_3" data-name="Shape 8 copy 3" d="M167,1834.5,158.22,1843v-7.218l8.779-8.511,8.78,8.511V1843Zm0-10.956-8.779,8.51v-7.218L167,1816.32l8.78,8.511v7.218Zm19.787,1.24-8.51-8.78,8.51-8.78H194L185.5,1816l8.509,8.78Zm-10.955,0L167.32,1816l8.511-8.78h7.218l-8.51,8.78,8.51,8.78Zm-24.881,0,8.51-8.78-8.51-8.78h7.219l8.51,8.78-8.51,8.78Zm-10.956,0L148.5,1816,140,1807.22h7.219l8.51,8.78-8.51,8.78Zm18.225-17.61v-7.219l8.779,8.51,8.78-8.51v7.219l-8.78,8.51Zm0-10.956v-7.219L167,1797.5l8.78-8.51v7.219l-8.78,8.51Z" transform="translate(-84 -1)" fill="#f5c506"/>
  </g>
</svg>
